<svg xmlns="http://www.w3.org/2000/svg" xmlns:xlink="http://www.w3.org/1999/xlink" id="Layer_1" x="0px" y="0px" viewBox="0 0 78.1 102.4" style="enable-background:new 0 0 78.1 102.4;" xml:space="preserve"><style type="text/css">	.st0{fill:#BE202E;}	.st1{fill:#FFFFFF;}	.st2{fill:#062D48;}</style><g>	<rect class="st0" width="78.1" height="102.4"></rect>	<g>		<g>			<g>				<polygon class="st1" points="20.6,53.7 20.6,53.7 20.6,53.7 20.6,53.7     "></polygon>				<polygon class="st1" points="20.6,67.3 20.6,68.6 20.6,67.3     "></polygon>				<path class="st1" d="M21,53.5l-0.4,0.2l0,0C20.7,53.6,20.9,53.6,21,53.5z"></path>				<path class="st1" d="M30.2,40.9c0.5,0.3-0.5,0.4-0.5,0.4l-2.2-0.8C27.5,40.5,29.8,40.8,30.2,40.9z M26.2,47.2c0,0,3.4,0.6,5,0.3     C30.9,48,29.1,48.7,26.2,47.2z M46.6,63.5c-0.7,0.2-1.2,1.2-1.2,1.2c-0.1-0.7,0.3-1,0.7-1.4C46.5,63,46.6,63.5,46.6,63.5z      M41.1,60c0,0,4.1-3.1,4.9-3.7c0.8-0.5,1,0.6,1,0.6l-0.2,4.8h-1.4l-1.2,1.1L41.1,60z"></path>				<g>					<path class="st1" d="M20.6,53.7v-1.5c-0.2,0.6-5.3,2.9-6.2,3.5C16.8,55.2,18.9,54.4,20.6,53.7L20.6,53.7z"></path>					<path class="st1" d="M50.5,48.3c6.3-1.3,11-6.8,11.1-13.4c0-0.1,0-0.3,0-0.4c0-7.8-6.3-13.8-14.1-13.8c0,0-35.5,0-35.8,0.1      c-0.3,0.1-0.2,0.5-0.2,0.5c0,0.4,0.4,0.5,0.4,0.5c6.4,0,7.8,4.6,7.8,4.6c1,1.8,1,5.8,1,5.8s-0.1,11-0.1,16.8l0,4.7l0.4-0.2      c4.1-1.9,6.1-4,6.8-4.5c-4.5-1-5-3.6-5.5-4.8c1.7,1.8,4,1.3,4,1.3s0-0.3,0-0.3c-5-0.8-4.3-4.2-4.3-4.2c0.3,1.4,1.4,1.7,1.7,1.8      c2,0.4,3-0.7,3-0.8c-2.6-0.9-2.2-2.2-2.1-3.1c0.6,1.7,1.7,1.6,1.8,1.6c-2.3-1.8-2.4-3.6-2.3-4.3c0.8,2.5,2.1,3.1,2.1,3      c-0.5-0.3-0.5-2-0.5-3.1c-0.1-1-1.1-1.1-1.7-1.2c1.8-1,3.2,1,3.8,1.5c0.1,0.1,0.2,0.2,0.4,0.3c0.2,0.1,0.4,0.2,0.6,0.3      c0.2,0.1,0.3,0.1,0.5,0.1c0.3,0,0.6,0,0.9,0c0.1,0,0.2,0,0.3,0c0,0,0.1,0,0.1,0c-3.8-0.7-3.7-2.3-3.9-3.2c0,0,0.1,0.1,0.1,0.1      c0,0,0.1,0.1,0.1,0.1c0.1,0.1,0.2,0.1,0.2,0.2c0.2,0.2,0.6,0.3,0.8,0.1c0.3-0.1,0.5-0.5,0.7-0.7c0.8-0.7,1.7-1.1,2.8-1.1      c0.1,0,0.6,0,0.6,0c-0.3-0.5-1.9-0.3-2.7-0.1c2.9-2.7,6.1-0.5,6.5-0.4c-0.5-1.5-3.6-1.8-3.7-1.7c3.6-1,5,0,5.4,0      c-0.1-0.5-1.8-0.8-4-1c4.4-0.7,7.5,1.4,7.7,1.3c0-0.5-1.3-0.9-1.7-1.2c1.6,0.2,2.7,1.2,2.7,1.2c-0.1-0.8-0.7-1.1-1.2-1.5      c1.7,0.6,1.5,1.5,1.5,1.5s0.2,0.1,0.4,0c0.1-0.8,0.3-1.1,0.5-1.2c0.4,0,0.6,1.2,0.6,1.2c0,0,0.1-0.2,0.1-0.2      c0-0.1,0.1-0.1,0.1-0.2c0.1-0.1,0.1-0.2,0.2-0.3c0.1-0.1,0.2-0.3,0.3-0.2c0.1,0.1,0.1,0.2,0.2,0.3c0.1,0.4,0.1,0.8,0.1,1.2      c0,0.5-0.1,0.9-0.2,1.4c0.8,0.1,1.8,1.1,2.5,1.8c0.1,0.2,0.3,0.3,0.4,0.4c0.6,0.8,1.7,1.7,2.3,2.3c0.6,0.8,1.8,1.7,2.5,2.2      c0.7,0.6,0.2,1,0.2,1s-0.7,1.2-1.1,1.6c-0.4,0.4-1,0.2-1.3,0.2c-0.3,0-0.9-0.6-1.3-1c-0.8-0.8-1.4-0.6-1.4-0.6s-0.1,0-0.2,0      c-0.5,0-1.6,0-2.5-0.1c-3-0.5-4.3-1.3-4.3-1.3c0.7,1,2.3,1.3,2.3,1.3s-0.1,1.1-0.4,2.7c-0.3,1.7-0.3,4.5,0,4.9      c0.3,0.4,0.7,3.5,0.7,3.5s0.2,2.4,0.2,2.3c1.3-1,3.4-0.8,4.1-0.8c1.6,0.2,1.6,1.5,1.6,1.5s0,2.4,0,3.8      c-0.1,1.1,0.2,1.5,0.3,1.7c0.5,1.5-0.2,1.7-0.2,1.7l-3.1,2.9c-0.1,0.6-0.1,1.1-0.5,1.5c0,0-0.7,0.8-2.7,2.5      c-0.3,0.3-0.6,0.7-1,1c-0.3,0.3-0.7,0.7-1.2,0.9c-0.4,0.2-1,0.3-1.5,0.4c-1.2,0.3-2.4,0.7-3.6,0.8c-0.3,0-0.8,0.1-1-0.1      c-0.3-0.3,0.2-1,0.4-1.2c0.3-0.4,0.6-0.7,0.9-1.1c0.3-0.4,0.8-0.6,1.3-0.5c0.4,0.1,0.9,0.7,1.4,0.4c0,0,4.2-3.2,4.6-3.6      c0.5-0.4,0-0.8,0-0.8s-2.6-0.9-4.3-1.5c-2.3-0.8-3.2-0.3-4.1,0.2c-6.5,4.2-14.4,4.9-14.4,4.9l-0.1,1.7c0,0.9-0.1,2-0.2,3.6      c-1.5,6.5-7.2,6.5-8.2,6.5c-0.1,0-0.2,0-0.2,0.1c-0.6,0.4-0.4,0.8-0.2,1c0,0,0.1,0.1,0.1,0.1h37.4c13.5-0.4,17.5-7.6,17.5-17.1      C66.7,55.6,59.9,48.9,50.5,48.3z"></path>				</g>				<path class="st1" d="M43.1,63.6c-0.8-0.3-1.6-0.6-2.4-1c-0.5-0.2-0.9-0.4-1.4-0.6c-0.4-0.2-0.8-0.4-1.3-0.4     c-0.8-0.2-1.6,0-2.4,0.2c-0.7,0.2-1.3,0.6-1.9,0.9c-0.6,0.4-1.3,0.7-1.9,1c-0.4,0.2-0.7,0.4-1.1,0.5c-1.3,0.6-2.6,1.2-3.9,1.6     c-0.6,0.2-1.3,0.4-2,0.6c-0.7,0.1-1.4,0.2-2.1,0.2c-0.7,0-1.4,0-2.1,0l0,0c-0.3,0-0.6,0-0.9,0l0.4,0.6c0,0,0.2,0.1,0.5,0.1l0,0     c0.4,0.1,3.2-0.1,3.4-0.1c1.6-0.2,3.2-0.7,4.6-1.3c0.2-0.1,0.3-0.1,0.5-0.2c1.1-0.5,2.2-1.1,3.3-1.6c0.4-0.2,0.7-0.4,1.1-0.5     c0.9-0.4,1.7-1,2.6-1.3c0.2-0.1,0.5-0.1,0.8-0.2c0.5,0,1,0,1.4,0.2c0.3,0.1,0.7,0.2,1,0.3c0.8,0.3,1.6,0.5,2.3,0.8     c0.5,0.2,1,0.3,1.5,0.6c0.1,0,0.4,0.2,0.5,0C43.7,63.7,43.2,63.6,43.1,63.6z"></path>				<path class="st1" d="M46.1,63.3c-0.4,0.4-0.8,0.6-0.7,1.4c0,0,0.5-1,1.2-1.2C46.6,63.5,46.5,63,46.1,63.3z"></path>				<path class="st1" d="M45.4,61.7l1.5,0c0-0.5,0-1,0-1.5c0-0.8,0-1.7,0-2.5c0-0.4,0.1-0.8-0.1-1.2c-0.2-0.3-0.5-0.4-0.8-0.2     c-0.8,0.5-4.9,3.7-4.9,3.7l3,2.8L45.4,61.7z"></path>				<path class="st1" d="M47.9,55.9c0,0.1,0.1,0.2,0.1,0.3c0,0,0.1-0.1,0.1-0.1c0.2-0.2,0.1-0.6,0-0.9c-0.2-0.3-0.5-0.5-0.9-0.6     c-0.3-0.1-0.7-0.1-1,0c-1.1,0.2-1.8,0.9-2.6,1.6c-1,0.8-2,1.6-3,2.4c-0.3,0.3-0.6,0.5-0.9,0.8c-0.1,0.1-0.3,0.3-0.2,0.4     c0.2,0.3,0.7-0.2,0.9-0.4c0.3-0.3,0.7-0.5,1-0.8c0.8-0.7,1.7-1.3,2.6-2c0.4-0.3,0.8-0.6,1.3-0.9c0.5-0.3,1.2-0.6,1.8-0.5     C47.3,55.4,47.7,55.6,47.9,55.9z"></path>				<path class="st1" d="M47.9,39.2c-0.2,0-0.3,0-0.5,0c-2.8-0.1-4.8-0.9-4.8-0.9c1,0.9,2.4,1.4,3.7,1.5c0.3,0,0.6,0,0.9,0     c0.3,0,0.6-0.1,0.8-0.1c0.3,0,0.6,0,0.9,0.2c0.4,0.2,0.8,0.5,1.2,0.9c0,0,0.2,0.2,0.2,0.2C50.1,39.6,48.8,39.3,47.9,39.2z"></path>				<path class="st1" d="M30.9,37.4V36h-1.2C30.9,36,30.9,37.4,30.9,37.4z"></path>				<path class="st1" d="M30.2,40.9c-0.4-0.1-2.7-0.4-2.7-0.4l2.2,0.8C29.7,41.3,30.7,41.3,30.2,40.9z"></path>				<path class="st1" d="M26.2,47.2c3,1.5,4.7,0.8,5,0.3C29.5,47.8,26.2,47.2,26.2,47.2z"></path>			</g>		</g>	</g></g></svg>