<svg xmlns="http://www.w3.org/2000/svg" fill="none" viewBox="0 0 116 36">
  <path fill="#ECF3FB" d="M33.644 21.598h-3.468v-1.045A.82.82 0 0 1 31 19.73h8.266v1.867H35.8v9.02h-2.155v-9.02Zm7.201 8.615a1.406 1.406 0 0 1-.422-1.057v-8.65a.773.773 0 0 1 .778-.775h7.565v1.867H42.58v2.519h5.717v1.867H42.58v2.767h6.186v1.867h-6.827a1.517 1.517 0 0 1-1.093-.405Zm12.201-5.147-3.655-5.335h2.452l2.437 3.577 2.437-3.577h2.437L55.5 25.066l3.812 5.552h-2.454l-2.577-3.795-2.592 3.795h-2.454l3.812-5.552Zm8.076-5.335h1.38v10.887h-2.156V20.506a.773.773 0 0 1 .776-.775Zm14.321 0h1.144l5.245 7.403v-7.403h2.108v10.887h-1.916l-5.246-7.403v7.403H74.67V20.506a.773.773 0 0 1 .773-.775Zm-10.66 0h1.14l5.245 7.403v-7.403h2.118v10.887H71.37l-5.246-7.403v7.403h-2.118V20.506a.773.773 0 0 1 .777-.775Zm22.777 10.49a3.676 3.676 0 0 1-1.463-1.462 4.422 4.422 0 0 1-.524-2.185v-2.799a4.422 4.422 0 0 1 .524-2.185 3.677 3.677 0 0 1 1.468-1.462 4.441 4.441 0 0 1 2.18-.521H91.4a4.442 4.442 0 0 1 2.179.52 3.68 3.68 0 0 1 1.468 1.463c.36.672.54 1.424.524 2.185v2.799a4.422 4.422 0 0 1-.524 2.185 3.679 3.679 0 0 1-1.468 1.462c-.67.357-1.42.537-2.18.52h-1.655a4.441 4.441 0 0 1-2.184-.52Zm3.833-1.376a1.827 1.827 0 0 0 1.46-.653c.37-.436.555-1.005.555-1.707v-2.611c0-.705-.185-1.274-.555-1.708a1.82 1.82 0 0 0-1.46-.652h-1.656a1.823 1.823 0 0 0-1.46.652c-.37.436-.555 1.005-.555 1.708v2.61c0 .706.185 1.275.555 1.708a1.816 1.816 0 0 0 1.46.653h1.656Zm8.344.777L96.37 20.78a.771.771 0 0 1 .366-.96.78.78 0 0 1 .361-.089h1.124l2.874 8.166h.031l2.89-8.166h2.233l-4.201 10.887h-1.016c-.604 0-1.036-.332-1.296-.996Zm12.513-1.54h-4.093l-.968 2.536h-2.25l4.28-10.887h.969c.677 0 1.135.311 1.375.934l3.888 9.953h-2.249l-.952-2.536Zm-3.515-1.807h2.937l-1.453-3.917h-.013l-1.471 3.917Z"/>
  <path fill="url(#a)" d="M40.54 11.674v1.093a.506.506 0 0 0 .017-.159 42.262 42.262 0 0 1-.018-.934Z"/>
  <path fill="url(#b)" d="M26.66 13.582c0-.22.022-.364.085-.459a.395.395 0 0 1-.154-.2.303.303 0 0 1-.076.034v-.01h-8.596c-.61 0-1.22-.067-1.816-.2 5.662-1.205 9.111-4.599 10.426-10.173l.039.008V.472a.389.389 0 0 1 .208-.347 13.161 13.161 0 0 0-.782-.024C18.116.11 10.239.11 2.362.101c-.648 0-1.296 0-1.943-.007C.015.087 0 .094 0 .505V12.36c0 .465 0 .465.461.465h12.848c.378 0 .442.056.446.434 0 .362-.012.725-.012 1.087 0 2.773.022 5.546-.012 8.317-.014 1.123.146 2.22.293 3.323.062.334.148.663.259.985.068.251.153.498.252.739.208.477.439.944.655 1.419.46 1.018 1.135 1.896 1.868 2.725a10.302 10.302 0 0 0 2.487 2.087c.649.38 1.305.763 2 1.044.693.277 1.412.485 2.145.623.824.144 1.655.245 2.49.301.462.039.48-.01.48-.467v-21.86Z"/>
  <path fill="#ECF3FB" d="M26.914.08h6.463a7.13 7.13 0 0 1 5.03 2.075 7.066 7.066 0 0 1 2.083 5.007v5.624a.392.392 0 0 1-.39.395H26.914a.397.397 0 0 1-.364-.243.39.39 0 0 1-.03-.15V.473a.39.39 0 0 1 .243-.363c.048-.02.1-.03.15-.03Z"/>
  <defs>
    <linearGradient id="a" x1="40.539" x2="40.557" y1="12.217" y2="12.217" gradientUnits="userSpaceOnUse">
      <stop offset=".02" stop-color="#7095CD"/>
      <stop offset="1" stop-color="#305EAC"/>
    </linearGradient>
    <linearGradient id="b" x1="0" x2="26.776" y1="18.011" y2="18.011" gradientUnits="userSpaceOnUse">
      <stop offset=".02" stop-color="#7095CD"/>
      <stop offset="1" stop-color="#305EAC"/>
    </linearGradient>
  </defs>
</svg>